<svg width="28" height="28" viewBox="0 0 28 28" fill="none" xmlns="http://www.w3.org/2000/svg">
<path d="M11.1936 16.4059C8.61379 13.7333 8.03129 11.0607 7.89988 9.98996C7.86315 9.69389 7.9615 9.39697 8.16596 9.18664L10.2537 7.02483C10.5608 6.70687 10.6153 6.21136 10.3851 5.82999L7.06107 0.482895C6.80641 0.0605968 6.28351 -0.0918148 5.85365 0.13096L0.517448 2.7345C0.169837 2.91183 -0.0346233 3.29444 0.00484411 3.69376C0.284446 6.44551 1.44246 13.21 7.85933 19.8581C14.2762 26.5063 20.8049 27.7055 23.4625 27.9951C23.848 28.036 24.2173 27.8242 24.3885 27.4641L26.9016 21.9359C27.1159 21.4916 26.9697 20.9513 26.5638 20.687L21.4023 17.2444C21.0344 17.0057 20.5561 17.0618 20.249 17.3796L18.1622 19.5424C17.9592 19.7542 17.6726 19.8561 17.3868 19.8181C16.3532 19.6819 13.7734 19.0785 11.1936 16.4059Z" fill="white"/>
<path d="M21.4381 14.9657C20.9233 14.9657 20.506 14.5334 20.506 14.0001C20.5017 10.0027 17.3747 6.76321 13.516 6.75869C13.0013 6.75869 12.584 6.32641 12.584 5.79316C12.584 5.25992 13.0013 4.82764 13.516 4.82764C18.4037 4.83322 22.3647 8.93663 22.3701 14.0001C22.3701 14.5334 21.9528 14.9657 21.4381 14.9657Z" fill="white"/>
<path d="M26.0981 14.9657C25.5834 14.9657 25.1661 14.5334 25.1661 14.0001C25.1589 7.33766 19.9472 1.9385 13.516 1.93105C13.0013 1.93105 12.584 1.49877 12.584 0.965527C12.584 0.432281 13.0013 0 13.516 0C20.9762 0.00851396 27.0219 6.27161 27.0301 14.0001C27.0301 14.2562 26.9319 14.5018 26.7571 14.6829C26.5823 14.8639 26.3453 14.9657 26.0981 14.9657Z" fill="white"/>
</svg>
